<svg width="96" height="21" viewBox="0 0 96 21" fill="none" xmlns="http://www.w3.org/2000/svg">
<path d="M62.6049 0H0V20.4905H62.6049V0Z" fill="#E39324"/>
<path d="M66.8773 10.0273V15.9564H64.0872V0H70.1035C71.8474 0 73.2425 0.435967 74.2888 1.3951C75.3351 2.35422 75.8583 3.57493 75.8583 5.05722C75.8583 6.6267 75.3351 7.84741 74.2888 8.71935C73.2425 9.59128 71.8474 10.0273 70.0163 10.0273H66.8773ZM66.8773 7.76022H70.1907C71.1498 7.76022 71.9346 7.49864 72.4577 7.06267C72.9809 6.6267 73.2425 5.92916 73.2425 5.05722C73.2425 4.18529 72.9809 3.48774 72.4577 2.96458C71.9346 2.44142 71.237 2.17984 70.2779 2.17984H66.8773V7.76022Z" fill="#0C0C0C"/>
<path d="M84.2288 6.53958C83.88 6.45238 83.5312 6.45238 83.1825 6.45238C81.9618 6.45238 81.177 6.88835 80.741 7.84748V15.9565H78.1252V4.09816H80.6539L80.741 5.40606C81.3514 4.35974 82.2233 3.83658 83.3569 3.83658C83.7056 3.83658 84.0544 3.92377 84.316 4.01097L84.2288 6.53958Z" fill="#0C0C0C"/>
<path d="M85.0136 9.85284C85.0136 8.71933 85.2752 7.673 85.7111 6.71388C86.1471 5.75475 86.8446 5.0572 87.6294 4.53404C88.4141 4.01088 89.3733 3.7493 90.5068 3.7493C92.0763 3.7493 93.3842 4.27246 94.3433 5.31878C95.3024 6.3651 95.8256 7.673 95.9128 9.41687V10.0272C95.9128 11.1607 95.6512 12.2071 95.2152 13.1662C94.7793 14.1253 94.1689 14.8229 93.297 15.2588C92.425 15.782 91.5531 16.0436 90.4196 16.0436C88.7629 16.0436 87.455 15.5204 86.4087 14.3869C85.4495 13.2534 84.9264 11.7711 84.9264 9.94003V9.85284H85.0136ZM87.7166 10.1144C87.7166 11.3351 87.9782 12.2943 88.5013 12.9918C89.0245 13.6894 89.722 14.0381 90.594 14.0381C91.4659 14.0381 92.1635 13.6894 92.6866 12.9918C93.2098 12.2943 93.4713 11.2479 93.4713 9.94003C93.4713 8.71933 93.2098 7.7602 92.6866 7.06265C92.1635 6.3651 91.4659 6.01633 90.594 6.01633C89.722 6.01633 89.0245 6.3651 88.5013 7.06265C87.9782 7.7602 87.7166 8.71933 87.7166 10.1144Z" fill="#0C0C0C"/>
<path d="M96 17.6132H64.2616V20.4905H96V17.6132Z" fill="#0C0C0C"/>
<path d="M4.27246 13.6894H11.4223V15.8692H1.56946V0H4.27246V13.6894Z" fill="white"/>
<path d="M12.7303 9.8528C12.7303 8.71928 12.9918 7.67296 13.4278 6.80102C13.8638 5.8419 14.4741 5.14435 15.3461 4.70838C16.1308 4.18522 17.0899 4.01083 18.1363 4.01083C19.7057 4.01083 21.0136 4.53399 21.9728 5.49312C22.9319 6.53944 23.4551 7.84735 23.5423 9.50402V10.1144C23.5423 11.2479 23.2807 12.2942 22.8447 13.1661C22.4087 14.0381 21.7984 14.7356 20.9264 15.2588C20.1417 15.782 19.1826 16.0435 18.0491 16.0435C16.3924 16.0435 15.0845 15.5204 14.1254 14.3869C13.1662 13.2533 12.6431 11.8582 12.6431 10.0272V9.8528H12.7303ZM15.3461 10.1144C15.3461 11.3351 15.6076 12.2942 16.1308 12.9046C16.654 13.6021 17.3515 13.9509 18.2234 13.9509C19.0954 13.9509 19.7929 13.6021 20.3161 12.9046C20.8393 12.207 21.0136 11.1607 21.0136 9.8528C21.0136 8.63209 20.7521 7.76015 20.2289 7.06261C19.7057 6.36506 19.0082 6.01628 18.1363 6.01628C17.2643 6.01628 16.5668 6.36506 16.1308 7.06261C15.6076 7.76015 15.3461 8.71928 15.3461 10.1144Z" fill="white"/>
<path d="M25.3733 9.94006C25.3733 8.10899 25.8093 6.7139 26.6812 5.58038C27.5531 4.53406 28.6866 3.92371 30.0817 3.92371C31.3896 3.92371 32.436 4.35967 33.2207 5.3188L33.3079 4.18529H35.6621V15.5204C35.6621 17.0899 35.2262 18.2234 34.267 19.1826C33.3079 20.0545 32 20.4905 30.4305 20.4905C29.5586 20.4905 28.7738 20.3161 27.9019 19.9673C27.1172 19.6185 26.5068 19.1826 26.0708 18.5722L27.2915 17.0027C28.0763 17.9619 29.1226 18.3978 30.2561 18.3978C31.1281 18.3978 31.8256 18.1362 32.3488 17.7003C32.8719 17.2643 33.1335 16.5668 33.1335 15.6076V14.8229C32.3488 15.6948 31.3896 16.0436 30.0817 16.0436C28.6866 16.0436 27.6403 15.5204 26.7684 14.3869C25.8093 13.3406 25.3733 11.8583 25.3733 9.94006ZM27.9891 10.1144C27.9891 11.248 28.2507 12.2071 28.6866 12.9046C29.1226 13.6022 29.8202 13.951 30.6921 13.951C31.7384 13.951 32.5232 13.515 33.0463 12.5559V7.41144C32.5232 6.53951 31.7384 6.10354 30.6921 6.10354C29.8202 6.10354 29.1226 6.45232 28.6866 7.14986C28.2507 7.76022 27.9891 8.80654 27.9891 10.1144Z" fill="white"/>
<path d="M38.3651 1.48229C38.3651 1.04632 38.4523 0.784741 38.7139 0.435967C38.9755 0.174387 39.3242 0 39.8474 0C40.3706 0 40.7193 0.174387 40.9809 0.435967C41.2425 0.697548 41.3297 1.04632 41.3297 1.48229C41.3297 1.91826 41.2425 2.17984 40.9809 2.44142C40.7193 2.703 40.3706 2.87738 39.8474 2.87738C39.3242 2.87738 38.9755 2.703 38.7139 2.44142C38.4523 2.26703 38.3651 1.91826 38.3651 1.48229ZM41.1553 15.8692H38.5395V4.18529H41.1553V15.8692Z" fill="white"/>
<path d="M50.5722 12.6431C50.5722 12.2071 50.3979 11.8583 49.9619 11.5967C49.6131 11.3352 48.9156 11.1608 48.0436 10.9864C47.1717 10.812 46.387 10.5504 45.7766 10.2888C44.4687 9.59128 43.8583 8.71935 43.8583 7.49864C43.8583 6.45232 44.2943 5.66758 45.1662 4.97003C46.0382 4.27248 47.0845 3.92371 48.3924 3.92371C49.7875 3.92371 50.921 4.27248 51.793 4.97003C52.6649 5.66758 53.1009 6.53951 53.1009 7.67303H50.4851C50.4851 7.14986 50.3107 6.7139 49.9619 6.45232C49.6131 6.10354 49.09 5.92916 48.4796 5.92916C47.8692 5.92916 47.4333 6.10354 47.0845 6.36512C46.7357 6.6267 46.5613 6.97548 46.5613 7.41144C46.5613 7.84741 46.7357 8.10899 47.0845 8.37057C47.4333 8.63215 48.1308 8.80654 49.09 9.06812C50.1363 9.3297 50.921 9.59128 51.5314 9.85286C52.1417 10.2016 52.5777 10.5504 52.8393 10.9864C53.1009 11.4223 53.2752 11.9455 53.2752 12.5559C53.2752 13.6022 52.8393 14.4741 51.9673 15.0845C51.0954 15.6948 49.9619 16.0436 48.5668 16.0436C47.6077 16.0436 46.7357 15.8692 46.0382 15.5204C45.2534 15.1717 44.7303 14.7357 44.2943 14.1253C43.8583 13.515 43.684 12.9046 43.684 12.2071H46.2126C46.2126 12.8174 46.4742 13.3406 46.9101 13.6022C47.3461 13.951 47.9564 14.1253 48.654 14.1253C49.3515 14.1253 49.8747 13.951 50.2235 13.6894C50.3979 13.4278 50.5722 13.079 50.5722 12.6431Z" fill="white"/>
<path d="M58.6813 1.30795V4.18534H60.7739V6.10359H58.6813V12.6431C58.6813 13.0791 58.7685 13.4278 58.9429 13.6022C59.1172 13.7766 59.466 13.8638 59.902 13.8638C60.1636 13.8638 60.5123 13.8638 60.8611 13.7766V15.7821C60.2508 15.9565 59.7276 16.0436 59.1172 16.0436C57.1118 16.0436 56.0655 14.9101 56.0655 12.7303V6.10359H54.1472V4.18534H56.0655V1.30795H58.6813Z" fill="white"/>
</svg>
