<svg width="14" height="10" viewBox="0 0 14 10" fill="none" xmlns="http://www.w3.org/2000/svg">
    <path d="M6.96875 4.46875C6.6875 4.78125 6.6875 5.25 6.96875 5.53125L11.2188 9.78125C11.5313 10.0937 12 10.0937 12.2813 9.78125L13 9.09375C13.2813 8.78125 13.2813 8.3125 13 8.03125L9.96875 5L13 2C13.2812 1.71875 13.2812 1.21875 13 0.937498L12.2812 0.218748C12 -0.062502 11.5312 -0.0625019 11.2187 0.218748L6.96875 4.46875ZM0.96875 5.53125L5.21875 9.78125C5.53125 10.0937 6 10.0937 6.28125 9.78125L7 9.09375C7.28125 8.78125 7.28125 8.3125 7 8.03125L3.96875 5L7 2C7.28125 1.71875 7.28125 1.21875 7 0.937499L6.28125 0.218749C6 -0.062501 5.53125 -0.0625009 5.21875 0.218749L0.96875 4.46875C0.6875 4.78125 0.6875 5.25 0.96875 5.53125Z" fill="#516DB0"/>
</svg>